<svg xmlns="http://www.w3.org/2000/svg" viewBox="0 0 108 108" role="img" aria-label="Turquoise AI logo">
  <defs>
    <linearGradient id="bg" x1="0" y1="0" x2="108" y2="108" gradientUnits="userSpaceOnUse">
      <stop offset="0" stop-color="#80DEEA"/>
      <stop offset="1" stop-color="#00ACC1"/>
    </linearGradient>
  </defs>
  <rect width="108" height="108" rx="24" fill="url(#bg)"/>
  <g transform="translate(30 30) scale(2)">
    <path fill="#1E293B" d="M12 21.35 10.55 20.03C5.4 15.36 2 12.28 2 8.5 2 5.42 4.42 3 7.5 3c1.74 0 3.41.81 4.5 2.09C13.09 3.81 14.76 3 16.5 3 19.58 3 22 5.42 22 8.5c0 3.78-3.4 6.86-8.55 11.54L12 21.35z"/>
    <path fill="none" stroke="#00E5FF" stroke-width="1.5" stroke-linecap="round" stroke-linejoin="round" d="M4 12h2.5l2-3 3.5 7 2-4h4"/>
  </g>
</svg>
